<svg width="18" height="10" viewBox="0 0 18 10" fill="none" xmlns="http://www.w3.org/2000/svg">
<path d="M8.3301 9.70473C7.93783 9.31104 7.93783 8.67275 8.3301 8.27906L16.2852 0.295267C16.6775 -0.0984225 17.3135 -0.0984224 17.7058 0.295267C18.0981 0.688957 18.0981 1.32725 17.7058 1.72094L9.75066 9.70473C9.35839 10.0984 8.72238 10.0984 8.3301 9.70473Z" fill="#336FEE"/>
<path d="M9.6699 9.70473C10.0622 9.31104 10.0622 8.67275 9.6699 8.27906L1.71477 0.295267C1.32249 -0.0984225 0.686484 -0.0984224 0.294207 0.295267C-0.0980691 0.688957 -0.0980691 1.32725 0.294207 1.72094L8.24934 9.70473C8.64161 10.0984 9.27762 10.0984 9.6699 9.70473Z" fill="#336FEE"/>
</svg>
