<svg width="30" height="30" viewBox="0 0 30 30" fill="none" xmlns="http://www.w3.org/2000/svg">
<path d="M6.91763 9.04604C6.62374 8.75215 6.62374 8.27567 6.91763 7.98179L7.98188 6.91754C8.27576 6.62365 8.75224 6.62365 9.04613 6.91754L22.8814 20.7528C23.1753 21.0467 23.1753 21.5232 22.8814 21.817L21.8171 22.8813C21.5232 23.1752 21.0468 23.1752 20.7529 22.8813L6.91763 9.04604Z" fill="#A6A6A6"/>
<path d="M9.04613 22.8813C8.75224 23.1752 8.27576 23.1752 7.98188 22.8813L6.91763 21.817C6.62374 21.5232 6.62374 21.0467 6.91763 20.7528L20.7529 6.91754C21.0468 6.62365 21.5232 6.62365 21.8171 6.91754L22.8814 7.98179C23.1753 8.27567 23.1753 8.75215 22.8814 9.04604L9.04613 22.8813Z" fill="#A6A6A6"/>
</svg>
