<svg width="30" height="24" viewBox="0 0 30 24" fill="none" xmlns="http://www.w3.org/2000/svg">
<path d="M4 22C4 23.1046 3.10457 24 2 24C0.89543 24 0 23.1046 0 22C0 20.8954 0.89543 20 2 20C3.10457 20 4 20.8954 4 22Z" fill="#336FEE"/>
<path d="M4 12C4 13.1046 3.10457 14 2 14C0.89543 14 0 13.1046 0 12C0 10.8954 0.89543 10 2 10C3.10457 10 4 10.8954 4 12Z" fill="#336FEE"/>
<path d="M4 2C4 3.10457 3.10457 4 2 4C0.89543 4 0 3.10457 0 2C0 0.89543 0.89543 0 2 0C3.10457 0 4 0.89543 4 2Z" fill="#336FEE"/>
<path d="M7 2C7 1.44772 7.44772 1 8 1H29C29.5523 1 30 1.44772 30 2C30 2.55228 29.5523 3 29 3H8C7.44772 3 7 2.55228 7 2Z" fill="#336FEE"/>
<path d="M7 12C7 11.4477 7.44772 11 8 11H29C29.5523 11 30 11.4477 30 12C30 12.5523 29.5523 13 29 13H8C7.44772 13 7 12.5523 7 12Z" fill="#336FEE"/>
<path d="M7 22C7 21.4477 7.44772 21 8 21H29C29.5523 21 30 21.4477 30 22C30 22.5523 29.5523 23 29 23H8C7.44772 23 7 22.5523 7 22Z" fill="#336FEE"/>
</svg>
