<svg width="20" height="20" viewBox="0 0 20 20" fill="none" xmlns="http://www.w3.org/2000/svg">
<path d="M10.9886 8.55131L10.9886 1.72884C10.9889 1.40533 10.8607 1.09496 10.6321 0.866C10.4036 0.637044 10.0934 0.508257 9.7699 0.507971C9.44639 0.507685 9.13602 0.635925 8.90707 0.864477C8.67811 1.09303 8.54932 1.40317 8.54904 1.72668L8.54904 8.54916L1.72656 8.54916C1.40277 8.54916 1.09224 8.67778 0.863281 8.90674C0.634325 9.13569 0.505699 9.44623 0.505699 9.77002C0.505699 10.0938 0.634325 10.4043 0.863281 10.6333C1.09224 10.8623 1.40277 10.9909 1.72656 10.9909L8.54904 10.9909L8.54904 17.8134C8.54904 18.1372 8.67766 18.4477 8.90662 18.6766C9.13558 18.9056 9.44611 19.0342 9.7699 19.0342C10.0937 19.0342 10.4042 18.9056 10.6332 18.6766C10.8621 18.4477 10.9908 18.1372 10.9908 17.8134L10.9908 10.9909L17.8132 10.9909C18.137 10.9909 18.4476 10.8623 18.6765 10.6333C18.9055 10.4043 19.0341 10.0938 19.0341 9.77002C19.0341 9.44623 18.9055 9.13569 18.6765 8.90674C18.4476 8.67778 18.137 8.54916 17.8132 8.54916L10.9886 8.55131Z" fill="#336FEE"/>
</svg>
