<svg width="11" height="11" viewBox="0 0 11 11" fill="none" xmlns="http://www.w3.org/2000/svg">
<path d="M6.15984 4.7934L6.15984 0.968952C6.16 0.787605 6.08811 0.613622 5.95999 0.485277C5.83187 0.356932 5.65802 0.284738 5.47667 0.284578C5.29532 0.284418 5.12134 0.356304 4.99299 0.484423C4.86465 0.612541 4.79246 0.786397 4.7923 0.967744L4.7923 4.79219L0.967851 4.79219C0.786344 4.79219 0.612271 4.86429 0.483926 4.99264C0.355581 5.12098 0.283477 5.29506 0.283477 5.47656C0.283477 5.65807 0.355581 5.83214 0.483926 5.96049C0.612271 6.08883 0.786344 6.16094 0.967851 6.16094L4.7923 6.16094L4.7923 9.98538C4.7923 10.1669 4.8644 10.341 4.99274 10.4693C5.12109 10.5977 5.29516 10.6698 5.47667 10.6698C5.65818 10.6698 5.83225 10.5977 5.96059 10.4693C6.08894 10.341 6.16104 10.1669 6.16104 9.98538L6.16104 6.16094H9.98549C10.167 6.16094 10.3411 6.08883 10.4694 5.96049C10.5978 5.83214 10.6699 5.65807 10.6699 5.47656C10.6699 5.29506 10.5978 5.12098 10.4694 4.99264C10.3411 4.86429 10.167 4.79219 9.98549 4.79219L6.15984 4.7934Z" fill="#336FEE"/>
</svg>
